<?xml version="1.0" encoding="utf-8"?>
<!-- Generator: Adobe Illustrator 17.0.0, SVG Export Plug-In . SVG Version: 6.00 Build 0)  -->
<!DOCTYPE svg PUBLIC "-//W3C//DTD SVG 1.1//EN" "http://www.w3.org/Graphics/SVG/1.1/DTD/svg11.dtd">
<svg version="1.1" xmlns="http://www.w3.org/2000/svg" xmlns:xlink="http://www.w3.org/1999/xlink" x="0px" y="0px" width="85.6px"
	 height="59.6px" viewBox="-7073.4 -7839.3 85.6 59.6" enable-background="new -7073.4 -7839.3 85.6 59.6" xml:space="preserve">
<g id="button">
	<circle id="button_1_" fill="none" cx="-7031.2" cy="-7809.9" r="18.3"/>
	<g id="button-base_2_">
		<path fill="none" d="M-7014.2-7798.8c0,3.1-2.6,5.7-5.7,5.7h-22.7c-3.1,0-5.7-2.6-5.7-5.7v-22.2c0-3.1,2.6-5.7,5.7-5.7h22.7
			c3.1,0,5.7,2.6,5.7,5.7V-7798.8z"/>
		<path fill="none" d="M-7014.2-7798.8c0,3.1-2.6,5.7-5.7,5.7h-22.7c-3.1,0-5.7-2.6-5.7-5.7v-22.2c0-3.1,2.6-5.7,5.7-5.7h22.7
			c3.1,0,5.7,2.6,5.7,5.7V-7798.8z"/>
	</g>
	<g id="resistors_3_">
		<rect x="-7052.4" y="-7788.6" fill="none" width="7.9" height="2.5"/>
		<rect x="-7016.7" y="-7788.6" fill="none" width="7.9" height="2.5"/>
		<circle fill="none" cx="-7019.6" cy="-7787.4" r="1"/>
	</g>
	<g id="circles_2_">
		<circle fill="none" cx="-7037.9" cy="-7828.2" r="2.5"/>
		<circle fill="none" cx="-7024.1" cy="-7828.2" r="2.5"/>
		<circle fill="none" cx="-7037.9" cy="-7791.6" r="2.5"/>
		<circle fill="none" cx="-7024.1" cy="-7791.6" r="2.5"/>
	</g>
	<g id="board_2_">
		
			<use xlink:href="#board_3_"  width="162" height="74.3" x="-81" y="-37.2" transform="matrix(0.3087 0 0 -0.7724 -7030.5708 -7809.4653)" overflow="visible"/>
		
			<use xlink:href="#bitsnap-left"  width="17.8" height="59.5" id="XMLID_1_" x="-8.9" y="-29.8" transform="matrix(1 0 0 -1 -7064.4663 -7809.5098)" overflow="visible"/>
		
			<use xlink:href="#bitsnap-right"  width="17.8" height="59.5" id="XMLID_2_" x="-8.9" y="-29.8" transform="matrix(1 0 0 -1 -6996.6665 -7809.4639)" overflow="visible"/>
	</g>
</g>
<symbol  id="bitsnap-left" viewBox="-8.9 -29.8 17.8 59.5">
	<path fill="none" d="M4.7,29.8h-9V11.5c-0.3-0.2-0.5-0.7-0.5-1.2V-10c0-0.6,0.2-1,0.5-1.2v-18.5h9c2.3,0,4.2,1.9,4.2,4.2v51.1
		C8.9,27.9,7,29.8,4.7,29.8z"/>
	<path fill="none" d="M-4.8,9.6l-2.7-0.3c-0.8-0.1-1.4-0.8-1.4-1.6V2.6c0-0.8,0.6-1.5,1.4-1.5l2.7-0.2V9.6z"/>
	<g id="connectors_2_">
		<path fill="none" d="M-4.8,8.9c-0.5-0.1-0.8-0.5-0.8-1V6.7c0-0.5,0.4-0.9,0.8-1V8.9z"/>
		<path fill="none" d="M-4.8,1.7c-0.5-0.1-0.8-0.5-0.8-1v-1.2c0-0.5,0.4-0.9,0.8-1V1.7z"/>
		<path fill="none" d="M-4.8-5.5c-0.5-0.1-0.8-0.5-0.8-1v-1.2c0-0.5,0.4-0.9,0.8-1V-5.5z"/>
	</g>
</symbol>
<symbol  id="bitsnap-right" viewBox="-8.9 -29.8 17.8 59.5">
	<path fill="none" d="M-4.7-29.8h9v18.3c0.3,0.2,0.5,0.7,0.5,1.2V10c0,0.6-0.2,1-0.5,1.2v18.5h-9c-2.3,0-4.2-1.9-4.2-4.2v-51.1
		C-8.9-27.9-7-29.8-4.7-29.8z"/>
	<path fill="none" d="M4.8-9.6l2.7,0.3c0.8,0.1,1.4,0.8,1.4,1.6v5.1c0,0.8-0.6,1.5-1.4,1.5L4.8-0.9V-9.6z"/>
</symbol>
<symbol  id="board_3_" viewBox="-81 -37.2 162 74.3">
	<polygon id="board_4_" fill="none" points="81,-37.2 -81,-37.2 -81,37.2 81,37.2 	"/>
</symbol>
</svg>
