<?xml version="1.0" encoding="utf-8"?>
<!-- Generator: Adobe Illustrator 17.0.0, SVG Export Plug-In . SVG Version: 6.00 Build 0)  -->
<!DOCTYPE svg PUBLIC "-//W3C//DTD SVG 1.1//EN" "http://www.w3.org/Graphics/SVG/1.1/DTD/svg11.dtd">
<svg version="1.1" xmlns="http://www.w3.org/2000/svg" xmlns:xlink="http://www.w3.org/1999/xlink" x="0px" y="0px" width="63.9px"
	 height="59.5px" viewBox="-7390.9 -7839.2 63.9 59.5" enable-background="new -7390.9 -7839.2 63.9 59.5" xml:space="preserve">
<g id="usb-power">
	<rect x="-7364.4" y="-7791.1" fill="none" width="15.4" height="4.9"/>
	<g id="resistor_1_">
		<rect x="-7366.8" y="-7810.6" fill="none" width="1.3" height="2.7"/>
		<rect x="-7367.4" y="-7808.4" fill="none" width="2.5" height="2.9"/>
		<rect x="-7367.4" y="-7813.3" fill="none" width="2.5" height="2.9"/>
	</g>
	<g id="resistor_2_">
		<rect x="-7357.9" y="-7795.8" fill="none" width="2.7" height="1.3"/>
		<rect x="-7355.7" y="-7796.4" fill="none" width="2.9" height="2.5"/>
		<rect x="-7360.6" y="-7796.4" fill="none" width="2.9" height="2.5"/>
	</g>
	<g id="usb-slot">
		<g id="XMLID_19_">
			<g id="usb_1_">
				<path fill="none" d="M-7372.9-7817.5c-0.2-1.6-1-3.4-3.4-3.4h-14.6v21.4h14.6c2.4,0,3.2-1.9,3.4-3.4V-7817.5z"/>
			</g>
		</g>
	</g>
	<g id="board_1_">
		
			<use xlink:href="#bitsnap-right"  width="17.8" height="59.5" x="-8.9" y="-29.8" transform="matrix(1 0 0 -1 -7335.8413 -7809.459)" overflow="visible"/>
		
			<use xlink:href="#board_3_"  width="162" height="74.3" x="-81" y="-37.2" transform="matrix(0.2622 0 0 -0.7723 -7365.9819 -7809.4839)" overflow="visible"/>
	</g>
</g>
<symbol  id="bitsnap-right" viewBox="-8.9 -29.8 17.8 59.5">
	<path fill="none" d="M-4.7-29.8h9v18.3c0.3,0.2,0.5,0.7,0.5,1.2V10c0,0.6-0.2,1-0.5,1.2v18.5h-9c-2.3,0-4.2-1.9-4.2-4.2v-51.1
		C-8.9-27.9-7-29.8-4.7-29.8z"/>
	<path fill="none" d="M4.8-9.6l2.7,0.3c0.8,0.1,1.4,0.8,1.4,1.6v5.1c0,0.8-0.6,1.5-1.4,1.5L4.8-0.9V-9.6z"/>
</symbol>
<symbol  id="board_3_" viewBox="-81 -37.2 162 74.3">
	<polygon id="board_4_" fill="none" points="81,-37.2 -81,-37.2 -81,37.2 81,37.2 	"/>
</symbol>
</svg>
