<?xml version="1.0" encoding="utf-8"?>
<!-- Generator: Adobe Illustrator 17.0.0, SVG Export Plug-In . SVG Version: 6.00 Build 0)  -->
<!DOCTYPE svg PUBLIC "-//W3C//DTD SVG 1.1//EN" "http://www.w3.org/Graphics/SVG/1.1/DTD/svg11.dtd">
<svg version="1.1" xmlns="http://www.w3.org/2000/svg" xmlns:xlink="http://www.w3.org/1999/xlink" x="0px" y="0px" width="172.6px"
	 height="59.5px" viewBox="-7286 -7839.2 172.6 59.5" enable-background="new -7286 -7839.2 172.6 59.5" xml:space="preserve">
<symbol  id="usb-cable" viewBox="-86.2 -16 172.4 31.9">
	<polygon fill="none" points="65.9,-16 38.1,-16 18.1,-9.8 11.3,-9.8 11.3,9.9 18.1,9.9 38.1,16 65.9,16 	"/>
	<g id="usb_5_">
		<path fill="none" d="M86.2,6.4c-0.2,1.6-1,3.4-3.4,3.4h-17V-9.8h17c2.4,0,3.2,1.9,3.4,3.4V6.4z"/>
	</g>
	<path fill="none" d="M10.8,7.9L7.4,7.7V2.1c0-0.4-0.4-0.8-0.8-0.8c-0.4,0-0.8,0.4-0.8,0.8v5.5L2.4,7.5V2.1c0-0.4-0.4-0.8-0.8-0.8
		c-0.4,0-0.8,0.4-0.8,0.8v5.2l-3.4-0.2v-5c0-0.4-0.4-0.8-0.8-0.8c-0.4,0-0.8,0.4-0.8,0.8v5l-4.5-0.3c-1.4-0.1-2.6-1.3-2.6-2.7v-8.2
		c0-1.4,1.2-2.6,2.6-2.7l4.5-0.3v5c0,0.4,0.4,0.8,0.8,0.8c0.4,0,0.8-0.4,0.8-0.8v-5l3.4-0.2v5.2c0,0.4,0.4,0.8,0.8,0.8
		c0.4,0,0.8-0.4,0.8-0.8v-5.3l3.4-0.2v5.5c0,0.4,0.4,0.8,0.8,0.8c0.4,0,0.8-0.4,0.8-0.8v-5.6l3.4-0.2"/>
	<polyline fill="none" points="-86.2,2.3 -11.3,2.3 -11.3,-2.3 -86.2,-2.3 	"/>
	<g>
		<polygon fill="none" points="83.2,1.3 80,1.3 80,-1.3 83.2,-1.3 		"/>
		<polygon fill="none" points="83.2,-4.5 80,-4.5 80,-7 83.2,-7 		"/>
		<polygon fill="none" points="83.2,7 80,7 80,4.5 83.2,4.5 		"/>
	</g>
	<g>
		<path fill="none" d="M70-7.1c0,0.7,0.6,1.3,1.3,1.3h3.4c0.7,0,1.3-0.6,1.3-1.3l0,0c0-0.7-0.6-1.3-1.3-1.3h-3.4
			C70.5-8.4,70-7.8,70-7.1L70-7.1z"/>
		<path fill="none" d="M70,7.1c0,0.7,0.6,1.3,1.3,1.3h3.4c0.7,0,1.3-0.6,1.3-1.3l0,0c0-0.7-0.6-1.3-1.3-1.3h-3.4
			C70.5,5.8,70,6.4,70,7.1L70,7.1z"/>
	</g>
</symbol>
</svg>
