<?xml version="1.0" encoding="utf-8"?>
<!-- Generator: Adobe Illustrator 17.0.0, SVG Export Plug-In . SVG Version: 6.00 Build 0)  -->
<!DOCTYPE svg PUBLIC "-//W3C//DTD SVG 1.1//EN" "http://www.w3.org/Graphics/SVG/1.1/DTD/svg11.dtd">
<svg version="1.1" xmlns="http://www.w3.org/2000/svg" xmlns:xlink="http://www.w3.org/1999/xlink" x="0px" y="0px" width="90.7px"
	 height="145.5px" viewBox="-6923.7 -7893.9 90.7 145.5" enable-background="new -6923.7 -7893.9 90.7 145.5" xml:space="preserve">
<g id="long-led">
	
		<use xlink:href="#board_3_"  width="162" height="74.3" x="-81" y="-37.2" transform="matrix(0.1779 0 0 -0.7724 -6891.4922 -7809.4653)" overflow="visible"/>
	
		<use xlink:href="#bitsnap-left"  width="17.8" height="59.5" id="XMLID_4_" x="-8.9" y="-29.8" transform="matrix(1 0 0 -1 -6914.7998 -7809.5093)" overflow="visible"/>
	
		<use xlink:href="#bitsnap-right"  width="17.8" height="59.5" id="XMLID_3_" x="-8.9" y="-29.8" transform="matrix(1 0 0 -1 -6867.938 -7809.4639)" overflow="visible"/>
	<rect x="-6905.9" y="-7838.1" fill="none" width="29.1" height="57.4"/>
	<path fill="none" d="M-6872.6-7779.7h9v-18.3c0.3-0.2,0.5-0.7,0.5-1.2v-20.2c0-0.6-0.2-1-0.5-1.2v-18.5h-9c-2.3,0-4.2,1.9-4.2,4.2
		v51.1C-6876.8-7781.6-6874.9-7779.7-6872.6-7779.7z"/>
	<path fill="none" d="M-6863.1-7799.9l2.7-0.3c0.8-0.1,1.4-0.8,1.4-1.6v-5.1c0-0.8-0.6-1.5-1.4-1.5l-2.7-0.2V-7799.9z"/>
	<path fill="none" d="M-6910.1-7839.2h-9v18.3c-0.3,0.2-0.5,0.7-0.5,1.2v20.2c0,0.6,0.2,1,0.5,1.2v18.5h9c2.3,0,4.2-1.9,4.2-4.2
		v-51.1C-6905.9-7837.3-6907.8-7839.2-6910.1-7839.2z"/>
	<path fill="none" d="M-6919.6-7819l-2.7,0.3c-0.8,0.1-1.4,0.8-1.4,1.6v5.1c0,0.8,0.6,1.5,1.4,1.5l2.7,0.2V-7819z"/>
	<path fill="none" d="M-6920.2-7818.3c-0.5,0.1-0.8,0.5-0.8,1v1.2c0,0.5,0.4,0.9,0.8,1V-7818.3z"/>
	<path fill="none" d="M-6920.2-7811.2c-0.5,0.1-0.8,0.5-0.8,1v1.2c0,0.5,0.4,0.9,0.8,1V-7811.2z"/>
	<path fill="none" d="M-6920.2-7804c-0.5,0.1-0.8,0.5-0.8,1v1.2c0,0.5,0.4,0.9,0.8,1V-7804z"/>
	<g id="wire-connector">
		<line fill="none" x1="-6889.9" y1="-7806.3" x2="-6889.9" y2="-7804.6"/>
		<line fill="none" x1="-6892.9" y1="-7806.3" x2="-6892.9" y2="-7804.6"/>
		<g>
			<rect x="-6902.8" y="-7804.9" fill="none" width="22.8" height="26.5"/>
		</g>
	</g>
	<g id="led-wire">
		<path id="wire" fill="none" d="M-6863.4-7748.3c-16.7,0-30.3-13.6-30.3-30.3c0-1.2,1-2.2,2.2-2.2s2.2,1,2.2,2.2
			c0,14.2,11.6,25.8,25.8,25.8s25.8-11.6,25.8-25.8v-79.2c0-14.2-11.6-25.8-25.8-25.8h-18.2c-1.2,0-2.2-1-2.2-2.2s1-2.2,2.2-2.2
			h18.2c16.7,0,30.3,13.6,30.3,30.3v79.2C-6833-7761.9-6846.6-7748.3-6863.4-7748.3z"/>
		<path id="light" fill="none" d="M-6894.9-7879.4c-3.6,0-6.6-2.9-6.6-6.6c0-3.6,2.9-6.6,6.6-6.6h14.8v-1.3h2.8v15.8h-2.8v-1.3
			H-6894.9z"/>
	</g>
</g>
<symbol  id="bitsnap-left" viewBox="-8.9 -29.8 17.8 59.5">
	<path fill="none" d="M4.7,29.8h-9V11.5c-0.3-0.2-0.5-0.7-0.5-1.2V-10c0-0.6,0.2-1,0.5-1.2v-18.5h9c2.3,0,4.2,1.9,4.2,4.2v51.1
		C8.9,27.9,7,29.8,4.7,29.8z"/>
	<path fill="none" d="M-4.8,9.6l-2.7-0.3c-0.8-0.1-1.4-0.8-1.4-1.6V2.6c0-0.8,0.6-1.5,1.4-1.5l2.7-0.2V9.6z"/>
	<g id="connectors_2_">
		<path fill="none" d="M-4.8,8.9c-0.5-0.1-0.8-0.5-0.8-1V6.7c0-0.5,0.4-0.9,0.8-1V8.9z"/>
		<path fill="none" d="M-4.8,1.7c-0.5-0.1-0.8-0.5-0.8-1v-1.2c0-0.5,0.4-0.9,0.8-1V1.7z"/>
		<path fill="none" d="M-4.8-5.5c-0.5-0.1-0.8-0.5-0.8-1v-1.2c0-0.5,0.4-0.9,0.8-1V-5.5z"/>
	</g>
</symbol>
<symbol  id="bitsnap-right" viewBox="-8.9 -29.8 17.8 59.5">
	<path fill="none" d="M-4.7-29.8h9v18.3c0.3,0.2,0.5,0.7,0.5,1.2V10c0,0.6-0.2,1-0.5,1.2v18.5h-9c-2.3,0-4.2-1.9-4.2-4.2v-51.1
		C-8.9-27.9-7-29.8-4.7-29.8z"/>
	<path fill="none" d="M4.8-9.6l2.7,0.3c0.8,0.1,1.4,0.8,1.4,1.6v5.1c0,0.8-0.6,1.5-1.4,1.5L4.8-0.9V-9.6z"/>
</symbol>
<symbol  id="board_3_" viewBox="-81 -37.2 162 74.3">
	<polygon id="board_4_" fill="none" points="81,-37.2 -81,-37.2 -81,37.2 81,37.2 	"/>
</symbol>
</svg>
