<?xml version="1.0" encoding="utf-8"?>
<!-- Generator: Adobe Illustrator 18.1.0, SVG Export Plug-In . SVG Version: 6.00 Build 0)  -->
<svg version="1.1" xmlns="http://www.w3.org/2000/svg" xmlns:xlink="http://www.w3.org/1999/xlink" x="0px" y="0px"
	 viewBox="0 0 247.7 98.1" style="enable-background:new 0 0 247.7 98.1;" xml:space="preserve">
<style type="text/css">
	.st0{fill:none;}
</style>
<symbol  id="board" viewBox="-123.9 -49.1 247.7 98.1">
	<polygon id="board-body_2_" class="st0" points="-83.2,49 83,49 83,-49.1 -83.2,-49.1 	"/>
	<polygon id="board-io_board-io-out_2_" class="st0" points="83,49 123.8,49 123.8,-49.1 83,-49.1 	"/>
	<polygon id="board-io_board-io-in_2_" class="st0" points="-123.9,49 -83.1,49 -83.1,-49.1 -123.9,-49.1 	"/>
</symbol>
<g id="cloudbit">
	<rect id="bit-cloud-sdc" x="162.3" y="53.9" class="st0" width="35.7" height="45.2"/>
	
		<use xlink:href="#board"  width="247.7" height="98.1" x="-123.9" y="-49.1" transform="matrix(1 0 0 -1 123.85 48.981)" style="overflow:visible;"/>
	<rect id="bit-cloud-usb_1_" x="45.1" y="44.5" class="st0" width="42.9" height="51"/>
	<rect id="bit-cloud-usb-tray" x="43.3" y="41.8" class="st0" width="47.2" height="45.1"/>
	<rect id="bit-cloud-cpu" x="101.9" y="27.6" class="st0" width="35.7" height="32.7"/>
	<rect id="bit-cloud-setup-button" x="172.2" y="45.6" class="st0" width="10.1" height="15.7"/>
	<g id="resistors">
		<rect x="161.9" y="74.7" class="st0" width="4.1" height="4.6"/>
		<rect x="167.4" y="74.7" class="st0" width="4.1" height="4.6"/>
		<rect x="173.2" y="74.7" class="st0" width="4.1" height="4.6"/>
		<rect x="179.1" y="74.7" class="st0" width="4.1" height="4.6"/>
	</g>
	<rect id="bit-cloud-light-box" x="171.5" y="6.8" class="st0" width="6.8" height="10"/>
	<circle id="bit-cloud-light-bulb" class="st0" cx="174.9" cy="11.8" r="1.9"/>
</g>
<g id="board_2_">
</g>
</svg>
